<?xml version="1.0" standalone="yes"?>

<svg version="1.1" viewBox="0.0 0.0 960.0 540.0" fill="none" stroke="none" stroke-linecap="square" stroke-miterlimit="10" xmlns="http://www.w3.org/2000/svg" xmlns:xlink="http://www.w3.org/1999/xlink"><clipPath id="gc6f980f91_0_0.0"><path d="m0 0l960.0 0l0 540.0l-960.0 0l0 -540.0z" clip-rule="nonzero"></path></clipPath><g clip-path="url(#gc6f980f91_0_0.0)"><path fill="#37474f" d="m0 0l960.0 0l0 540.0l-960.0 0z" fill-rule="evenodd"></path><path fill="#ffffff" d="m474.46158 305.3221l0 0c0 -3.0624084 2.4830627 -5.544983 5.5460815 -5.544983l0 0c1.4709167 0 2.8815918 0.584198 3.9216614 1.6240845c1.0401001 1.0398865 1.6244202 2.4502869 1.6244202 3.9208984l0 0c0 3.0624084 -2.4830627 5.544983 -5.5460815 5.544983l0 0c-3.0630188 0 -5.5460815 -2.4825745 -5.5460815 -5.544983z" fill-rule="evenodd"></path><path fill="#ffffff" d="m492.201 305.3221l0 0c0 -3.0624084 2.4830627 -5.544983 5.5460815 -5.544983l0 0c1.4709167 0 2.8815918 0.584198 3.921692 1.6240845c1.0400696 1.0398865 1.6243896 2.4502869 1.6243896 3.9208984l0 0c0 3.0624084 -2.4830627 5.544983 -5.5460815 5.544983l0 0c-3.0630188 0 -5.5460815 -2.4825745 -5.5460815 -5.544983z" fill-rule="evenodd"></path><path fill="#ffffff" d="m456.72217 305.3221l0 0c0 -3.0624084 2.4830627 -5.544983 5.5460815 -5.544983l0 0c1.4709167 0 2.8815918 0.584198 3.9216614 1.6240845c1.0401001 1.0398865 1.6244202 2.4502869 1.6244202 3.9208984l0 0c0 3.0624084 -2.4830627 5.544983 -5.5460815 5.544983l0 0c-3.0630188 0 -5.5460815 -2.4825745 -5.5460815 -5.544983z" fill-rule="evenodd"></path><path fill="#000000" fill-opacity="0.0" d="m31.774279 104.020996l886.2362 0l0 181.63779l-886.2362 0z" fill-rule="evenodd"></path><path fill="#ffffff" d="m163.40419 132.25504l11.265625 0q8.390625 0 11.875 3.84375q3.484375 3.84375 3.484375 11.96875l0 19.078125q0 8.5625 -3.421875 12.765625q-3.421875 4.1875 -11.359375 4.1875l-11.84375 0l0 -51.84375zm11.328125 46.65625q3.78125 0 5.46875 -1.46875q1.703125 -1.46875 2.109375 -4.0q0.421875 -2.53125 0.421875 -7.640625l0 -16.84375q0 -4.40625 -0.546875 -6.734375q-0.546875 -2.34375 -2.28125 -3.46875q-1.71875 -1.125 -5.359375 -1.125l-3.90625 0l0 41.28125l4.09375 0zm32.071686 5.703125q-4.296875 0 -6.671875 -1.625q-2.359375 -1.640625 -3.328125 -4.84375q-0.953125 -3.203125 -0.953125 -8.3125l0 -8.453125q0 -7.6875 2.390625 -11.234375q2.40625 -3.546875 8.5625 -3.546875q4.46875 0 6.734375 1.859375q2.28125 1.84375 3.015625 5.203125q0.734375 3.359375 0.734375 9.0625l0 3.0l-14.59375 0l0 4.9375q0 3.328125 0.15625 5.0q0.171875 1.65625 1.03125 2.78125q0.859375 1.109375 2.84375 1.109375q2.25 0 3.046875 -1.5q0.796875 -1.5 0.796875 -4.578125l0 -2.234375l6.65625 0l0 1.40625q0 5.828125 -2.5 8.90625q-2.484375 3.0625 -7.921875 3.0625zm3.765625 -22.59375l0 -3.328125q0 -3.78125 -0.734375 -5.40625q-0.734375 -1.640625 -3.109375 -1.640625q-1.65625 0 -2.53125 0.78125q-0.859375 0.765625 -1.1875 2.53125q-0.3125 1.75 -0.3125 5.078125l0 1.984375l7.875 0zm12.928329 -14.90625l6.34375 0l0 3.515625q1.84375 -2.046875 4.046875 -3.09375q2.21875 -1.0625 4.65625 -1.0625q4.734375 0 6.015625 4.671875q3.84375 -4.671875 9.21875 -4.671875q2.875 0 4.6875 2.109375q1.828125 2.109375 1.828125 6.453125l0 29.0625l-6.265625 0l0 -28.609375q0 -2.4375 -0.765625 -3.484375q-0.765625 -1.0625 -2.25 -1.0625q-1.46875 0 -3.03125 0.8125q-1.5625 0.796875 -2.90625 2.203125l0 1.078125l0 29.0625l-6.28125 0l0 -28.609375q0 -2.4375 -0.765625 -3.484375q-0.765625 -1.0625 -2.234375 -1.0625q-1.484375 0 -3.015625 0.8125q-1.53125 0.796875 -2.9375 2.203125l0 30.140625l-6.34375 0l0 -36.984375zm42.941803 41.015625q3.84375 0 5.28125 -0.578125q1.4375 -0.578125 1.4375 -2.171875q0 -0.390625 -0.25 -1.671875l-0.828125 -3.828125l-0.328125 -1.28125q-3.203125 -13.3125 -7.421875 -31.484375l6.921875 0l4.984375 27.640625l4.796875 -27.640625l6.921875 0l-8.84375 39.03125q-0.890625 3.90625 -3.78125 5.5625q-2.875 1.671875 -8.046875 1.671875l-0.84375 0l0 -5.25zm34.2442 -3.515625q-4.484375 0 -7.265625 -2.8125q-2.78125 -2.828125 -3.171875 -7.5625l5.703125 -1.71875q0.453125 3.578125 1.625 5.3125q1.1875 1.71875 3.359375 1.71875q1.796875 0 2.953125 -1.109375q1.15625 -1.125 1.15625 -2.859375q0 -2.875 -3.015625 -5.4375l-6.328125 -5.4375q-2.1875 -1.859375 -3.375 -3.875q-1.171875 -2.015625 -1.171875 -4.953125q0 -4.421875 2.546875 -6.84375q2.5625 -2.4375 6.984375 -2.4375q4.21875 0 6.625 2.71875q2.40625 2.71875 2.78125 7.0l-4.609375 1.734375q-0.4375 -3.140625 -1.46875 -4.765625q-1.015625 -1.640625 -3.078125 -1.640625q-1.65625 0 -2.6875 1.09375q-1.015625 1.09375 -0.953125 2.6875q0 2.109375 1.859375 3.71875l6.53125 6.015625q2.421875 2.171875 3.828125 4.484375q1.40625 2.296875 1.40625 5.5q0 4.59375 -2.75 7.03125q-2.75 2.4375 -7.484375 2.4375zm25.217224 0q-4.21875 0 -6.078125 -2.203125q-1.859375 -2.21875 -1.921875 -6.625l0 -24.140625l-3.90625 0l0 -4.53125l3.90625 0l0 -10.828125l6.84375 0l0 10.828125l5.953125 0l0 4.53125l-5.953125 0l0 23.6875q0 2.234375 0.703125 3.140625q0.703125 0.890625 2.6875 0.890625q1.28125 0 2.5 -0.1875l0 5.046875q-2.5625 0.390625 -4.734375 0.390625zm10.305725 -50.171875l6.84375 0l0 7.15625l-6.84375 0l0 -7.15625zm0 12.671875l6.84375 0l0 36.984375l-6.84375 0l0 -36.984375zm16.374695 5.046875l-4.40625 0l0 -5.046875l4.40625 0l0 -1.921875q0 -3.84375 0.578125 -6.171875q0.578125 -2.34375 2.328125 -3.625q1.765625 -1.28125 5.09375 -1.28125q1.484375 0 4.484375 0.328125l0 5.109375q-0.515625 -0.0625 -1.3125 -0.1875q-0.796875 -0.125 -1.25 -0.125q-1.84375 0 -2.453125 1.1875q-0.609375 1.171875 -0.609375 3.609375l0 3.078125l5.625 0l0 5.046875l-5.625 0l0 31.9375l-6.859375 0l0 -31.9375zm15.617981 35.96875q3.84375 0 5.28125 -0.578125q1.4375 -0.578125 1.4375 -2.171875q0 -0.390625 -0.25 -1.671875l-0.828125 -3.828125l-0.328125 -1.28125q-3.203125 -13.3125 -7.421875 -31.484375l6.921875 0l4.984375 27.640625l4.796875 -27.640625l6.921875 0l-8.84375 39.03125q-0.890625 3.90625 -3.78125 5.5625q-2.875 1.671875 -8.046875 1.671875l-0.84375 0l0 -5.25zm26.119202 -53.6875l6.84375 0l0 7.15625l-6.84375 0l0 -7.15625zm0 12.671875l6.84375 0l0 36.984375l-6.84375 0l0 -36.984375zm14.20285 0l6.84375 0l0 3.640625q4.421875 -4.15625 9.03125 -4.15625q3.015625 0 4.28125 2.171875q1.28125 2.171875 1.28125 5.375l0 29.953125l-6.84375 0l0 -27.96875q0 -2.109375 -0.640625 -3.125q-0.640625 -1.03125 -2.296875 -1.03125q-2.046875 0 -4.8125 2.296875l0 29.828125l-6.84375 0l0 -36.984375zm39.611572 48.4375q-6.578125 0 -10.140625 -1.09375q-3.546875 -1.078125 -3.546875 -4.65625q0 -2.890625 1.5 -5.0q1.5 -2.109375 3.8125 -3.328125q-1.734375 -0.515625 -2.65625 -1.59375q-0.921875 -1.09375 -0.921875 -2.375q0 -1.921875 0.953125 -3.328125q0.953125 -1.40625 3.140625 -3.390625q-2.1875 -1.65625 -3.25 -4.1875q-1.046875 -2.53125 -1.046875 -6.8125q0 -6.46875 2.65625 -9.828125q2.65625 -3.359375 7.78125 -3.359375q2.9375 0 4.796875 1.03125q1.859375 1.015625 2.8125 3.0625q0.453125 -0.703125 1.890625 -1.890625q1.4375 -1.1875 3.109375 -1.953125l1.015625 -0.453125l1.734375 4.421875q-1.28125 0.25 -3.5625 1.09375q-2.265625 0.828125 -2.703125 1.28125q0.4375 1.140625 0.78125 3.203125q0.359375 2.046875 0.359375 3.578125q0 6.078125 -2.375 9.4375q-2.359375 3.359375 -7.859375 3.359375q-1.734375 0 -3.515625 -0.453125q-0.140625 0.203125 -0.6875 1.09375q-0.53125 0.890625 -0.53125 1.734375q0 0.703125 0.734375 1.125q0.734375 0.40625 2.328125 0.53125q0.96875 0.125 2.921875 0.296875q1.953125 0.15625 2.84375 0.21875q8.578125 0.765625 8.578125 9.015625q0 4.9375 -2.65625 7.078125q-2.65625 2.140625 -8.296875 2.140625zm-1.71875 -27.578125q2.75 0 3.578125 -1.921875q0.828125 -1.921875 0.828125 -6.265625q0 -4.421875 -0.828125 -6.4375q-0.828125 -2.015625 -3.515625 -2.015625q-2.6875 0 -3.625 2.015625q-0.921875 2.015625 -0.921875 6.4375q0 3.953125 0.921875 6.078125q0.9375 2.109375 3.5625 2.109375zm1.59375 22.203125q3.015625 0 4.421875 -0.859375q1.40625 -0.859375 1.40625 -2.78125q0 -1.796875 -1.09375 -2.65625q-1.078125 -0.875 -3.96875 -1.125l-5.8125 -0.515625q-0.96875 0.765625 -1.859375 2.046875q-0.890625 1.28125 -0.890625 2.75q0 1.15625 0.5625 1.828125q0.578125 0.671875 2.265625 0.984375q1.703125 0.328125 4.96875 0.328125zm31.683441 -57.921875l11.265625 0q8.390625 0 11.875 3.84375q3.484375 3.84375 3.484375 11.96875l0 19.078125q0 8.5625 -3.421875 12.765625q-3.421875 4.1875 -11.359375 4.1875l-11.84375 0l0 -51.84375zm11.328125 46.65625q3.78125 0 5.46875 -1.46875q1.703125 -1.46875 2.109375 -4.0q0.421875 -2.53125 0.421875 -7.640625l0 -16.84375q0 -4.40625 -0.546875 -6.734375q-0.546875 -2.34375 -2.28125 -3.46875q-1.71875 -1.125 -5.359375 -1.125l-3.90625 0l0 41.28125l4.09375 0zm28.477905 5.703125q-2.109375 0 -3.8125 -1.21875q-1.6875 -1.21875 -2.65625 -3.203125q-0.953125 -1.984375 -0.953125 -4.15625q0 -4.359375 1.859375 -7.078125q1.859375 -2.71875 4.703125 -4.28125q2.84375 -1.5625 8.03125 -3.6875l0 -2.625q0 -3.640625 -0.734375 -5.140625q-0.734375 -1.515625 -2.984375 -1.515625q-3.90625 0 -3.90625 5.25l0 1.859375l-6.78125 -0.25l0.0625 -1.34375q0.328125 -5.578125 3.109375 -8.09375q2.78125 -2.53125 7.96875 -2.53125q5.3125 0 7.703125 2.90625q2.40625 2.90625 2.40625 8.796875l0 16.90625q0 4.15625 0.640625 8.890625l-6.265625 0q-0.703125 -3.640625 -0.90625 -5.4375q-0.765625 2.5 -2.65625 4.234375q-1.875 1.71875 -4.828125 1.71875zm2.6875 -5.890625q1.34375 0 2.625 -1.046875q1.28125 -1.0625 1.859375 -2.03125l0 -10.484375q-2.8125 1.65625 -4.234375 2.59375q-1.40625 0.921875 -2.46875 2.5q-1.046875 1.5625 -1.046875 3.671875q0 2.296875 0.828125 3.546875q0.84375 1.25 2.4375 1.25zm27.779602 5.890625q-4.21875 0 -6.078125 -2.203125q-1.859375 -2.21875 -1.921875 -6.625l0 -24.140625l-3.90625 0l0 -4.53125l3.90625 0l0 -10.828125l6.84375 0l0 10.828125l5.953125 0l0 4.53125l-5.953125 0l0 23.6875q0 2.234375 0.703125 3.140625q0.703125 0.890625 2.6875 0.890625q1.28125 0 2.5 -0.1875l0 5.046875q-2.5625 0.390625 -4.734375 0.390625zm16.50885 0q-2.109375 0 -3.8125 -1.21875q-1.6875 -1.21875 -2.65625 -3.203125q-0.953125 -1.984375 -0.953125 -4.15625q0 -4.359375 1.859375 -7.078125q1.859375 -2.71875 4.703125 -4.28125q2.84375 -1.5625 8.03125 -3.6875l0 -2.625q0 -3.640625 -0.734375 -5.140625q-0.734375 -1.515625 -2.984375 -1.515625q-3.90625 0 -3.90625 5.25l0 1.859375l-6.78125 -0.25l0.0625 -1.34375q0.328125 -5.578125 3.109375 -8.09375q2.78125 -2.53125 7.96875 -2.53125q5.3125 0 7.703125 2.90625q2.40625 2.90625 2.40625 8.796875l0 16.90625q0 4.15625 0.640625 8.890625l-6.265625 0q-0.703125 -3.640625 -0.90625 -5.4375q-0.765625 2.5 -2.65625 4.234375q-1.875 1.71875 -4.828125 1.71875zm2.6875 -5.890625q1.34375 0 2.625 -1.046875q1.28125 -1.0625 1.859375 -2.03125l0 -10.484375q-2.8125 1.65625 -4.234375 2.59375q-1.40625 0.921875 -2.46875 2.5q-1.046875 1.5625 -1.046875 3.671875q0 2.296875 0.828125 3.546875q0.84375 1.25 2.4375 1.25zm45.373047 5.953125q-6.515625 0 -9.953125 -4.03125q-3.421875 -4.03125 -3.796875 -11.078125l6.390625 -1.71875q0.328125 4.984375 1.953125 8.0625q1.640625 3.0625 5.40625 3.0625q2.828125 0 4.265625 -1.5625q1.4375 -1.5625 1.4375 -4.515625q0 -3.140625 -1.34375 -5.21875q-1.34375 -2.078125 -4.296875 -4.765625l-8.703125 -7.671875q-2.625 -2.375 -3.8125 -5.03125q-1.171875 -2.65625 -1.171875 -6.421875q0 -5.765625 3.328125 -8.859375q3.328125 -3.109375 9.15625 -3.109375q6.078125 0 9.078125 3.265625q3.015625 3.25 3.65625 10.109375l-6.140625 1.65625q-0.328125 -4.40625 -1.671875 -6.9375q-1.34375 -2.53125 -4.734375 -2.53125q-6.203125 0 -6.203125 5.6875q0 2.3125 0.765625 3.8125q0.765625 1.5 2.625 3.234375l8.765625 7.6875q3.390625 3.125 5.40625 6.625q2.015625 3.484375 2.015625 7.890625q0 5.703125 -3.453125 9.03125q-3.453125 3.328125 -8.96875 3.328125zm27.584412 -0.0625q-4.34375 0 -6.71875 -1.765625q-2.359375 -1.765625 -3.234375 -4.921875q-0.859375 -3.171875 -0.859375 -8.03125l0 -8.515625q0 -5.0 0.859375 -8.1875q0.875 -3.203125 3.234375 -4.890625q2.375 -1.703125 6.71875 -1.703125q3.96875 0 6.171875 1.28125q2.21875 1.28125 3.078125 3.8125q0.875 2.515625 0.875 6.546875l0 2.171875l-6.21875 0l0 -2.234375q0 -3.640625 -0.796875 -5.078125q-0.796875 -1.453125 -3.046875 -1.453125q-1.71875 0 -2.5625 0.78125q-0.828125 0.765625 -1.15625 2.5q-0.3125 1.71875 -0.3125 5.046875l0 11.640625q0 3.203125 0.390625 4.90625q0.390625 1.6875 1.25 2.359375q0.859375 0.671875 2.46875 0.671875q2.359375 0 3.0625 -1.5625q0.703125 -1.578125 0.703125 -4.828125l0 -3.015625l6.21875 0l0 2.5625q0 6.015625 -2.21875 8.96875q-2.203125 2.9375 -7.90625 2.9375zm16.647705 -50.171875l6.84375 0l0 7.15625l-6.84375 0l0 -7.15625zm0 12.671875l6.84375 0l0 36.984375l-6.84375 0l0 -36.984375zm24.45282 37.5q-4.296875 0 -6.671875 -1.625q-2.359375 -1.640625 -3.328125 -4.84375q-0.953125 -3.203125 -0.953125 -8.3125l0 -8.453125q0 -7.6875 2.390625 -11.234375q2.40625 -3.546875 8.5625 -3.546875q4.46875 0 6.734375 1.859375q2.28125 1.84375 3.015625 5.203125q0.734375 3.359375 0.734375 9.0625l0 3.0l-14.59375 0l0 4.9375q0 3.328125 0.15625 5.0q0.171875 1.65625 1.03125 2.78125q0.859375 1.109375 2.84375 1.109375q2.25 0 3.046875 -1.5q0.796875 -1.5 0.796875 -4.578125l0 -2.234375l6.65625 0l0 1.40625q0 5.828125 -2.5 8.90625q-2.484375 3.0625 -7.921875 3.0625zm3.765625 -22.59375l0 -3.328125q0 -3.78125 -0.734375 -5.40625q-0.734375 -1.640625 -3.109375 -1.640625q-1.65625 0 -2.53125 0.78125q-0.859375 0.765625 -1.1875 2.53125q-0.3125 1.75 -0.3125 5.078125l0 1.984375l7.875 0zm12.928345 -14.90625l6.84375 0l0 3.640625q4.421875 -4.15625 9.03125 -4.15625q3.015625 0 4.28125 2.171875q1.28125 2.171875 1.28125 5.375l0 29.953125l-6.84375 0l0 -27.96875q0 -2.109375 -0.640625 -3.125q-0.640625 -1.03125 -2.296875 -1.03125q-2.046875 0 -4.8125 2.296875l0 29.828125l-6.84375 0l0 -36.984375zm38.205322 37.5q-4.34375 0 -6.71875 -1.765625q-2.359375 -1.765625 -3.234375 -4.921875q-0.859375 -3.171875 -0.859375 -8.03125l0 -8.515625q0 -5.0 0.859375 -8.1875q0.875 -3.203125 3.234375 -4.890625q2.375 -1.703125 6.71875 -1.703125q3.96875 0 6.171875 1.28125q2.21875 1.28125 3.078125 3.8125q0.875 2.515625 0.875 6.546875l0 2.171875l-6.21875 0l0 -2.234375q0 -3.640625 -0.796875 -5.078125q-0.796875 -1.453125 -3.046875 -1.453125q-1.71875 0 -2.5625 0.78125q-0.828125 0.765625 -1.15625 2.5q-0.3125 1.71875 -0.3125 5.046875l0 11.640625q0 3.203125 0.390625 4.90625q0.390625 1.6875 1.25 2.359375q0.859375 0.671875 2.46875 0.671875q2.359375 0 3.0625 -1.5625q0.703125 -1.578125 0.703125 -4.828125l0 -3.015625l6.21875 0l0 2.5625q0 6.015625 -2.21875 8.96875q-2.203125 2.9375 -7.90625 2.9375zm26.44458 0q-4.296875 0 -6.671875 -1.625q-2.359375 -1.640625 -3.328125 -4.84375q-0.953125 -3.203125 -0.953125 -8.3125l0 -8.453125q0 -7.6875 2.390625 -11.234375q2.40625 -3.546875 8.5625 -3.546875q4.46875 0 6.734375 1.859375q2.28125 1.84375 3.015625 5.203125q0.734375 3.359375 0.734375 9.0625l0 3.0l-14.59375 0l0 4.9375q0 3.328125 0.15625 5.0q0.171875 1.65625 1.03125 2.78125q0.859375 1.109375 2.84375 1.109375q2.25 0 3.046875 -1.5q0.796875 -1.5 0.796875 -4.578125l0 -2.234375l6.65625 0l0 1.40625q0 5.828125 -2.5 8.90625q-2.484375 3.0625 -7.921875 3.0625zm3.765625 -22.59375l0 -3.328125q0 -3.78125 -0.734375 -5.40625q-0.734375 -1.640625 -3.109375 -1.640625q-1.65625 0 -2.53125 0.78125q-0.859375 0.765625 -1.1875 2.53125q-0.3125 1.75 -0.3125 5.078125l0 1.984375l7.875 0zm13.31897 -11.78125l6.90625 0l0 7.296875l-6.90625 0l0 -7.296875zm0 20.421875l6.90625 0l0 7.296875l-6.90625 0l0 -7.296875z" fill-rule="nonzero"></path><path fill="#ffffff" d="m52.326035 209.25504l6.015625 0l5.578125 37.25l6.96875 -37.046875l5.125 0l7.046875 37.234375l5.4375 -37.4375l5.890625 0l-8.328125 51.84375l-5.25 0l-7.234375 -38.40625l-7.296875 38.40625l-5.5 0l-8.453125 -51.84375zm47.999664 0l6.859375 0l0 18.6875q4.609375 -4.34375 9.28125 -4.34375q3.0 0 4.25 2.171875q1.25 2.171875 1.25 5.375l0 29.953125l-6.84375 0l0 -27.96875q0 -2.109375 -0.640625 -3.125q-0.640625 -1.03125 -2.3125 -1.03125q-2.234375 0 -4.984375 2.421875l0 29.703125l-6.859375 0l0 -51.84375zm34.9487 52.359375q-2.109375 0 -3.8125 -1.21875q-1.6875 -1.21875 -2.65625 -3.203125q-0.953125 -1.984375 -0.953125 -4.15625q0 -4.359375 1.859375 -7.078125q1.859375 -2.71875 4.703125 -4.28125q2.84375 -1.5625 8.03125 -3.6875l0 -2.625q0 -3.640625 -0.734375 -5.140625q-0.734375 -1.515625 -2.984375 -1.515625q-3.90625 0 -3.90625 5.25l0 1.859375l-6.78125 -0.25l0.0625 -1.34375q0.328125 -5.578125 3.109375 -8.09375q2.78125 -2.53125 7.96875 -2.53125q5.3125 0 7.703125 2.90625q2.40625 2.90625 2.40625 8.796875l0 16.90625q0 4.15625 0.640625 8.890625l-6.265625 0q-0.703125 -3.640625 -0.90625 -5.4375q-0.765625 2.5 -2.65625 4.234375q-1.875 1.71875 -4.828125 1.71875zm2.6875 -5.890625q1.34375 0 2.625 -1.046875q1.28125 -1.0625 1.859375 -2.03125l0 -10.484375q-2.8125 1.65625 -4.234375 2.59375q-1.40625 0.921875 -2.46875 2.5q-1.046875 1.5625 -1.046875 3.671875q0 2.296875 0.828125 3.546875q0.84375 1.25 2.4375 1.25zm27.779572 5.890625q-4.21875 0 -6.078125 -2.203125q-1.859375 -2.21875 -1.921875 -6.625l0 -24.140625l-3.90625 0l0 -4.53125l3.90625 0l0 -10.828125l6.84375 0l0 10.828125l5.953125 0l0 4.53125l-5.953125 0l0 23.6875q0 2.234375 0.703125 3.140625q0.703125 0.890625 2.6875 0.890625q1.28125 0 2.5 -0.1875l0 5.046875q-2.5625 0.390625 -4.734375 0.390625zm34.367935 0q-4.21875 0 -6.078125 -2.203125q-1.859375 -2.21875 -1.921875 -6.625l0 -24.140625l-3.90625 0l0 -4.53125l3.90625 0l0 -10.828125l6.84375 0l0 10.828125l5.953125 0l0 4.53125l-5.953125 0l0 23.6875q0 2.234375 0.703125 3.140625q0.703125 0.890625 2.6875 0.890625q1.28125 0 2.5 -0.1875l0 5.046875q-2.5625 0.390625 -4.734375 0.390625zm10.040085 -52.359375l6.859375 0l0 18.6875q4.609375 -4.34375 9.28125 -4.34375q3.0 0 4.25 2.171875q1.25 2.171875 1.25 5.375l0 29.953125l-6.84375 0l0 -27.96875q0 -2.109375 -0.640625 -3.125q-0.640625 -1.03125 -2.3125 -1.03125q-2.234375 0 -4.984375 2.421875l0 29.703125l-6.859375 0l0 -51.84375zm38.54245 52.359375q-4.296875 0 -6.671875 -1.625q-2.359375 -1.640625 -3.328125 -4.84375q-0.953125 -3.203125 -0.953125 -8.3125l0 -8.453125q0 -7.6875 2.390625 -11.234375q2.40625 -3.546875 8.5625 -3.546875q4.46875 0 6.734375 1.859375q2.2812653 1.84375 3.0156403 5.203125q0.734375 3.359375 0.734375 9.0625l0 3.0l-14.593765 0l0 4.9375q0 3.328125 0.15625 5.0q0.171875 1.65625 1.03125 2.78125q0.859375 1.109375 2.84375 1.109375q2.25 0 3.046875 -1.5q0.796875 -1.5 0.796875 -4.578125l0 -2.234375l6.6562653 0l0 1.40625q0 5.828125 -2.5 8.90625q-2.4843903 3.0625 -7.9218903 3.0625zm3.765625 -22.59375l0 -3.328125q0 -3.78125 -0.734375 -5.40625q-0.734375 -1.640625 -3.109375 -1.640625q-1.65625 0 -2.53125 0.78125q-0.859375 0.765625 -1.1875 2.53125q-0.3125 1.75 -0.3125 5.078125l0 1.984375l7.875 0zm28.16243 -29.765625l7.234375 0l0 22.40625l13.3125 0l0 -22.40625l7.234375 0l0 51.84375l-7.234375 0l0 -24.25l-13.3125 0l0 24.25l-7.234375 0l0 -51.84375zm45.575836 52.359375q-4.296875 0 -6.671875 -1.625q-2.359375 -1.640625 -3.328125 -4.84375q-0.953125 -3.203125 -0.953125 -8.3125l0 -8.453125q0 -7.6875 2.390625 -11.234375q2.40625 -3.546875 8.5625 -3.546875q4.46875 0 6.734375 1.859375q2.28125 1.84375 3.015625 5.203125q0.734375 3.359375 0.734375 9.0625l0 3.0l-14.59375 0l0 4.9375q0 3.328125 0.15625 5.0q0.171875 1.65625 1.03125 2.78125q0.859375 1.109375 2.84375 1.109375q2.25 0 3.046875 -1.5q0.796875 -1.5 0.796875 -4.578125l0 -2.234375l6.65625 0l0 1.40625q0 5.828125 -2.5 8.90625q-2.484375 3.0625 -7.921875 3.0625zm3.765625 -22.59375l0 -3.328125q0 -3.78125 -0.734375 -5.40625q-0.734375 -1.640625 -3.109375 -1.640625q-1.65625 0 -2.53125 0.78125q-0.859375 0.765625 -1.1875 2.53125q-0.3125 1.75 -0.3125 5.078125l0 1.984375l7.875 0zm23.03769 22.59375q-4.34375 0 -6.71875 -1.765625q-2.359375 -1.765625 -3.234375 -4.921875q-0.859375 -3.171875 -0.859375 -8.03125l0 -8.515625q0 -5.0 0.859375 -8.1875q0.875 -3.203125 3.234375 -4.890625q2.375 -1.703125 6.71875 -1.703125q3.96875 0 6.171875 1.28125q2.21875 1.28125 3.078125 3.8125q0.875 2.515625 0.875 6.546875l0 2.171875l-6.21875 0l0 -2.234375q0 -3.640625 -0.796875 -5.078125q-0.796875 -1.453125 -3.046875 -1.453125q-1.71875 0 -2.5625 0.78125q-0.828125 0.765625 -1.15625 2.5q-0.3125 1.71875 -0.3125 5.046875l0 11.640625q0 3.203125 0.390625 4.90625q0.390625 1.6875 1.25 2.359375q0.859375 0.671875 2.46875 0.671875q2.359375 0 3.0625 -1.5625q0.703125 -1.578125 0.703125 -4.828125l0 -3.015625l6.21875 0l0 2.5625q0 6.015625 -2.21875 8.96875q-2.203125 2.9375 -7.90625 2.9375zm16.31958 -52.421875l6.859375 0l0 30.921875l9.984375 -16.0l7.15625 0l-8.703125 14.453125l8.453125 22.53125l-6.84375 0l-6.921875 -18.9375l-3.125 4.734375l0 14.140625l-6.859375 0l0 -51.84375zm42.440033 2.25l6.84375 0l0 7.15625l-6.84375 0l0 -7.15625zm0 12.671875l6.84375 0l0 36.984375l-6.84375 0l0 -36.984375zm22.780975 37.5q-4.484375 0 -7.265625 -2.8125q-2.78125 -2.828125 -3.171875 -7.5625l5.703125 -1.71875q0.453125 3.578125 1.625 5.3125q1.1875 1.71875 3.359375 1.71875q1.796875 0 2.953125 -1.109375q1.15625 -1.125 1.15625 -2.859375q0 -2.875 -3.015625 -5.4375l-6.328125 -5.4375q-2.1875 -1.859375 -3.375 -3.875q-1.171875 -2.015625 -1.171875 -4.953125q0 -4.421875 2.546875 -6.84375q2.5625 -2.4375 6.984375 -2.4375q4.21875 0 6.625 2.71875q2.40625 2.71875 2.78125 7.0l-4.609375 1.734375q-0.4375 -3.140625 -1.46875 -4.765625q-1.015625 -1.640625 -3.078125 -1.640625q-1.65625 0 -2.6875 1.09375q-1.015625 1.09375 -0.953125 2.6875q0 2.109375 1.859375 3.71875l6.53125 6.015625q2.421875 2.171875 3.828125 4.484375q1.40625 2.296875 1.40625 5.5q0 4.59375 -2.75 7.03125q-2.75 2.4375 -7.484375 2.4375z" fill-rule="nonzero"></path><path fill="#00ffff" d="m465.9598 209.25504l7.109375 0l9.15625 42.046875l9.21875 -42.046875l7.03125 0l0.953125 51.84375l-5.8125 0l-0.578125 -37.625l-8.765625 37.625l-4.09375 0l-8.703125 -37.625l-0.578125 37.625l-5.890625 0l0.953125 -51.84375zm47.4899 52.359375q-2.1093445 0 -3.8124695 -1.21875q-1.6875 -1.21875 -2.65625 -3.203125q-0.953125 -1.984375 -0.953125 -4.15625q0 -4.359375 1.859375 -7.078125q1.859375 -2.71875 4.7030945 -4.28125q2.84375 -1.5625 8.03125 -3.6875l0 -2.625q0 -3.640625 -0.734375 -5.140625q-0.734375 -1.515625 -2.984375 -1.515625q-3.90625 0 -3.90625 5.25l0 1.859375l-6.7812195 -0.25l0.0625 -1.34375q0.328125 -5.578125 3.109375 -8.09375q2.7812195 -2.53125 7.9687195 -2.53125q5.3125 0 7.703125 2.90625q2.40625 2.90625 2.40625 8.796875l0 16.90625q0 4.15625 0.640625 8.890625l-6.265625 0q-0.703125 -3.640625 -0.90625 -5.4375q-0.765625 2.5 -2.65625 4.234375q-1.875 1.71875 -4.828125 1.71875zm2.6875 -5.890625q1.34375 0 2.625 -1.046875q1.28125 -1.0625 1.859375 -2.03125l0 -10.484375q-2.8125 1.65625 -4.234375 2.59375q-1.40625 0.921875 -2.46875 2.5q-1.046875 1.5625 -1.046875 3.671875q0 2.296875 0.828125 3.546875q0.84375 1.25 2.4375 1.25zm28.029602 5.890625q-4.34375 0 -6.71875 -1.765625q-2.359375 -1.765625 -3.234375 -4.921875q-0.859375 -3.171875 -0.859375 -8.03125l0 -8.515625q0 -5.0 0.859375 -8.1875q0.875 -3.203125 3.234375 -4.890625q2.375 -1.703125 6.71875 -1.703125q3.96875 0 6.171875 1.28125q2.21875 1.28125 3.078125 3.8125q0.875 2.515625 0.875 6.546875l0 2.171875l-6.21875 0l0 -2.234375q0 -3.640625 -0.796875 -5.078125q-0.796875 -1.453125 -3.046875 -1.453125q-1.71875 0 -2.5625 0.78125q-0.828125 0.765625 -1.15625 2.5q-0.3125 1.71875 -0.3125 5.046875l0 11.640625q0 3.203125 0.390625 4.90625q0.390625 1.6875 1.25 2.359375q0.859375 0.671875 2.46875 0.671875q2.359375 0 3.0625 -1.5625q0.703125 -1.578125 0.703125 -4.828125l0 -3.015625l6.21875 0l0 2.5625q0 6.015625 -2.21875 8.96875q-2.203125 2.9375 -7.90625 2.9375zm16.38208 -52.359375l6.859375 0l0 18.6875q4.609375 -4.34375 9.28125 -4.34375q3.0 0 4.25 2.171875q1.25 2.171875 1.25 5.375l0 29.953125l-6.84375 0l0 -27.96875q0 -2.109375 -0.640625 -3.125q-0.640625 -1.03125 -2.3125 -1.03125q-2.234375 0 -4.984375 2.421875l0 29.703125l-6.859375 0l0 -51.84375zm28.745544 2.1875l6.84375 0l0 7.15625l-6.84375 0l0 -7.15625zm0 12.671875l6.84375 0l0 36.984375l-6.84375 0l0 -36.984375zm14.202881 0l6.84375 0l0 3.640625q4.421875 -4.15625 9.03125 -4.15625q3.015625 0 4.28125 2.171875q1.28125 2.171875 1.28125 5.375l0 29.953125l-6.84375 0l0 -27.96875q0 -2.109375 -0.640625 -3.125q-0.640625 -1.03125 -2.296875 -1.03125q-2.046875 0 -4.8125 2.296875l0 29.828125l-6.84375 0l0 -36.984375zm38.345947 37.5q-4.296875 0 -6.671875 -1.625q-2.359375 -1.640625 -3.328125 -4.84375q-0.953125 -3.203125 -0.953125 -8.3125l0 -8.453125q0 -7.6875 2.390625 -11.234375q2.40625 -3.546875 8.5625 -3.546875q4.46875 0 6.734375 1.859375q2.28125 1.84375 3.015625 5.203125q0.734375 3.359375 0.734375 9.0625l0 3.0l-14.59375 0l0 4.9375q0 3.328125 0.15625 5.0q0.171875 1.65625 1.03125 2.78125q0.859375 1.109375 2.84375 1.109375q2.25 0 3.046875 -1.5q0.796875 -1.5 0.796875 -4.578125l0 -2.234375l6.65625 0l0 1.40625q0 5.828125 -2.5 8.90625q-2.484375 3.0625 -7.921875 3.0625zm3.765625 -22.59375l0 -3.328125q0 -3.78125 -0.734375 -5.40625q-0.734375 -1.640625 -3.109375 -1.640625q-1.65625 0 -2.53125 0.78125q-0.859375 0.765625 -1.1875 2.53125q-0.3125 1.75 -0.3125 5.078125l0 1.984375l7.875 0zm28.162415 -29.765625l7.234375 0l0 46.65625l13.25 0l0 5.1875l-20.484375 0l0 -51.84375zm35.079834 52.359375q-4.296875 0 -6.671875 -1.625q-2.359375 -1.640625 -3.328125 -4.84375q-0.953125 -3.203125 -0.953125 -8.3125l0 -8.453125q0 -7.6875 2.390625 -11.234375q2.40625 -3.546875 8.5625 -3.546875q4.46875 0 6.734375 1.859375q2.28125 1.84375 3.015625 5.203125q0.734375 3.359375 0.734375 9.0625l0 3.0l-14.59375 0l0 4.9375q0 3.328125 0.15625 5.0q0.171875 1.65625 1.03125 2.78125q0.859375 1.109375 2.84375 1.109375q2.25 0 3.046875 -1.5q0.796875 -1.5 0.796875 -4.578125l0 -2.234375l6.65625 0l0 1.40625q0 5.828125 -2.5 8.90625q-2.484375 3.0625 -7.921875 3.0625zm3.765625 -22.59375l0 -3.328125q0 -3.78125 -0.734375 -5.40625q-0.734375 -1.640625 -3.109375 -1.640625q-1.65625 0 -2.53125 0.78125q-0.859375 0.765625 -1.1875 2.53125q-0.3125 1.75 -0.3125 5.078125l0 1.984375l7.875 0zm19.584595 22.59375q-2.109375 0 -3.8125 -1.21875q-1.6875 -1.21875 -2.65625 -3.203125q-0.953125 -1.984375 -0.953125 -4.15625q0 -4.359375 1.859375 -7.078125q1.859375 -2.71875 4.703125 -4.28125q2.84375 -1.5625 8.03125 -3.6875l0 -2.625q0 -3.640625 -0.734375 -5.140625q-0.734375 -1.515625 -2.984375 -1.515625q-3.90625 0 -3.90625 5.25l0 1.859375l-6.78125 -0.25l0.0625 -1.34375q0.328125 -5.578125 3.109375 -8.09375q2.78125 -2.53125 7.96875 -2.53125q5.3125 0 7.703125 2.90625q2.40625 2.90625 2.40625 8.796875l0 16.90625q0 4.15625 0.640625 8.890625l-6.265625 0q-0.703125 -3.640625 -0.90625 -5.4375q-0.765625 2.5 -2.65625 4.234375q-1.875 1.71875 -4.828125 1.71875zm2.6875 -5.890625q1.34375 0 2.625 -1.046875q1.28125 -1.0625 1.859375 -2.03125l0 -10.484375q-2.8125 1.65625 -4.234375 2.59375q-1.40625 0.921875 -2.46875 2.5q-1.046875 1.5625 -1.046875 3.671875q0 2.296875 0.828125 3.546875q0.84375 1.25 2.4375 1.25zm18.107727 -31.609375l6.859375 0l0 5.234375q1.921875 -3.125 3.9375 -4.40625q2.015625 -1.28125 4.25 -1.28125q0.578125 0 1.09375 0.0625l0 7.546875q-2.046875 -0.765625 -3.78125 -0.765625q-1.65625 0 -2.96875 0.8125q-1.3125 0.796875 -2.53125 2.765625l0 27.015625l-6.859375 0l0 -36.984375zm20.356445 0l6.84375 0l0 3.640625q4.421875 -4.15625 9.03125 -4.15625q3.015625 0 4.28125 2.171875q1.28125 2.171875 1.28125 5.375l0 29.953125l-6.84375 0l0 -27.96875q0 -2.109375 -0.640625 -3.125q-0.640625 -1.03125 -2.296875 -1.03125q-2.046875 0 -4.8125 2.296875l0 29.828125l-6.84375 0l0 -36.984375zm28.549072 -12.671875l6.84375 0l0 7.15625l-6.84375 0l0 -7.15625zm0 12.671875l6.84375 0l0 36.984375l-6.84375 0l0 -36.984375zm14.20282 0l6.84375 0l0 3.640625q4.421875 -4.15625 9.03125 -4.15625q3.015625 0 4.28125 2.171875q1.28125 2.171875 1.28125 5.375l0 29.953125l-6.84375 0l0 -27.96875q0 -2.109375 -0.640625 -3.125q-0.640625 -1.03125 -2.296875 -1.03125q-2.046875 0 -4.8125 2.296875l0 29.828125l-6.84375 0l0 -36.984375zm39.611572 48.4375q-6.578125 0 -10.140625 -1.09375q-3.546875 -1.078125 -3.546875 -4.65625q0 -2.890625 1.5 -5.0q1.5 -2.109375 3.8125 -3.328125q-1.734375 -0.515625 -2.65625 -1.59375q-0.921875 -1.09375 -0.921875 -2.375q0 -1.921875 0.953125 -3.328125q0.953125 -1.40625 3.140625 -3.390625q-2.1875 -1.65625 -3.25 -4.1875q-1.046875 -2.53125 -1.046875 -6.8125q0 -6.46875 2.65625 -9.828125q2.65625 -3.359375 7.78125 -3.359375q2.9375 0 4.796875 1.03125q1.859375 1.015625 2.8125 3.0625q0.453125 -0.703125 1.890625 -1.890625q1.4375 -1.1875 3.109375 -1.953125l1.015625 -0.453125l1.734375 4.421875q-1.28125 0.25 -3.5625 1.09375q-2.265625 0.828125 -2.703125 1.28125q0.4375 1.140625 0.78125 3.203125q0.359375 2.046875 0.359375 3.578125q0 6.078125 -2.375 9.4375q-2.359375 3.359375 -7.859375 3.359375q-1.734375 0 -3.515625 -0.453125q-0.140625 0.203125 -0.6875 1.09375q-0.53125 0.890625 -0.53125 1.734375q0 0.703125 0.734375 1.125q0.734375 0.40625 2.328125 0.53125q0.96875 0.125 2.921875 0.296875q1.953125 0.15625 2.84375 0.21875q8.578125 0.765625 8.578125 9.015625q0 4.9375 -2.65625 7.078125q-2.65625 2.140625 -8.296875 2.140625zm-1.71875 -27.578125q2.75 0 3.578125 -1.921875q0.828125 -1.921875 0.828125 -6.265625q0 -4.421875 -0.828125 -6.4375q-0.828125 -2.015625 -3.515625 -2.015625q-2.6875 0 -3.625 2.015625q-0.921875 2.015625 -0.921875 6.4375q0 3.953125 0.921875 6.078125q0.9375 2.109375 3.5625 2.109375zm1.59375 22.203125q3.015625 0 4.421875 -0.859375q1.40625 -0.859375 1.40625 -2.78125q0 -1.796875 -1.09375 -2.65625q-1.078125 -0.875 -3.96875 -1.125l-5.8125 -0.515625q-0.96875 0.765625 -1.859375 2.046875q-0.890625 1.28125 -0.890625 2.75q0 1.15625 0.5625 1.828125q0.578125 0.671875 2.265625 0.984375q1.703125 0.328125 4.96875 0.328125z" fill-rule="nonzero"></path><path fill="#ffffff" d="m878.96265 240.17691q5.625 -4.875 8.53125 -9.09375q2.921875 -4.21875 2.921875 -9.34375q0 -3.140625 -1.609375 -5.046875q-1.59375 -1.921875 -4.53125 -1.921875q-2.5625 0 -4.078125 1.4375q-1.5 1.4375 -1.5 3.796875q0 1.15625 0.453125 3.203125l-6.40625 1.21875q-0.703125 -1.984375 -0.703125 -4.03125q0 -5.1875 3.234375 -8.375q3.234375 -3.203125 9.0 -3.203125q6.078125 0 9.46875 3.453125q3.390625 3.453125 3.390625 9.65625q0 4.09375 -1.546875 7.53125q-1.53125 3.421875 -4.09375 6.265625q-2.546875 2.84375 -6.453125 6.171875l0 6.21875l-6.078125 0l0 -7.9375zm-0.328125 13.875l6.84375 0l0 7.046875l-6.84375 0l0 -7.046875z" fill-rule="nonzero"></path><path fill="#000000" fill-opacity="0.0" d="m70.47244 333.32028l819.0552 0l0 83.212616l-819.0552 0z" fill-rule="evenodd"></path><path fill="#ffffff" d="m377.98148 369.2003l7.703125 -20.046875l2.859375 0l8.203125 20.046875l-3.015625 0l-2.34375 -6.078125l-8.375 0l-2.203125 6.078125l-2.828125 0zm5.796875 -8.234375l6.78125 0l-2.078125 -5.546875q-0.96875 -2.53125 -1.421875 -4.15625q-0.390625 1.921875 -1.09375 3.828125l-2.1875 5.875zm24.285156 8.234375l0 -2.140625q-1.6875 2.46875 -4.609375 2.46875q-1.28125 0 -2.40625 -0.484375q-1.109375 -0.5 -1.65625 -1.234375q-0.53125 -0.75 -0.75 -1.84375q-0.140625 -0.71875 -0.140625 -2.296875l0 -8.984375l2.453125 0l0 8.046875q0 1.921875 0.15625 2.59375q0.234375 0.96875 0.984375 1.53125q0.75 0.546875 1.859375 0.546875q1.109375 0 2.078125 -0.5625q0.96875 -0.5625 1.375 -1.53125q0.40625 -0.984375 0.40625 -2.84375l0 -7.78125l2.453125 0l0 14.515625l-2.203125 0zm5.6035156 1.203125l2.390625 0.359375q0.15625 1.109375 0.84375 1.609375q0.90625 0.6875 2.5 0.6875q1.703125 0 2.625 -0.6875q0.9375 -0.6875 1.265625 -1.90625q0.203125 -0.765625 0.1875 -3.171875q-1.625 1.90625 -4.03125 1.90625q-2.984375 0 -4.625 -2.15625q-1.640625 -2.171875 -1.640625 -5.1875q0 -2.078125 0.75 -3.828125q0.75 -1.765625 2.171875 -2.71875q1.4375 -0.953125 3.359375 -0.953125q2.578125 0 4.25 2.078125l0 -1.75l2.265625 0l0 12.546875q0 3.390625 -0.703125 4.796875q-0.6875 1.421875 -2.1875 2.234375q-1.484375 0.828125 -3.671875 0.828125q-2.59375 0 -4.203125 -1.171875q-1.59375 -1.15625 -1.546875 -3.515625zm2.046875 -8.71875q0 2.859375 1.125 4.171875q1.140625 1.3125 2.84375 1.3125q1.703125 0 2.84375 -1.3125q1.15625 -1.3125 1.15625 -4.09375q0 -2.671875 -1.1875 -4.015625q-1.1875 -1.359375 -2.84375 -1.359375q-1.640625 0 -2.796875 1.34375q-1.140625 1.328125 -1.140625 3.953125zm23.49414 7.515625l0 -2.140625q-1.6875 2.46875 -4.609375 2.46875q-1.28125 0 -2.40625 -0.484375q-1.109375 -0.5 -1.65625 -1.234375q-0.53125 -0.75 -0.75 -1.84375q-0.140625 -0.71875 -0.140625 -2.296875l0 -8.984375l2.453125 0l0 8.046875q0 1.921875 0.15625 2.59375q0.234375 0.96875 0.984375 1.53125q0.75 0.546875 1.859375 0.546875q1.109375 0 2.078125 -0.5625q0.96875 -0.5625 1.375 -1.53125q0.40625 -0.984375 0.40625 -2.84375l0 -7.78125l2.453125 0l0 14.515625l-2.203125 0zm5.0722656 -4.328125l2.4375 -0.390625q0.203125 1.46875 1.140625 2.25q0.9375 0.765625 2.625 0.765625q1.6875 0 2.5 -0.6875q0.828125 -0.6875 0.828125 -1.609375q0 -0.84375 -0.71875 -1.3125q-0.515625 -0.328125 -2.515625 -0.84375q-2.71875 -0.6875 -3.765625 -1.171875q-1.03125 -0.5 -1.578125 -1.375q-0.546875 -0.890625 -0.546875 -1.96875q0 -0.96875 0.4375 -1.796875q0.453125 -0.828125 1.21875 -1.375q0.578125 -0.421875 1.5625 -0.703125q1.0 -0.296875 2.140625 -0.296875q1.703125 0 2.984375 0.5q1.296875 0.484375 1.90625 1.328125q0.625 0.828125 0.859375 2.234375l-2.40625 0.328125q-0.171875 -1.109375 -0.953125 -1.734375q-0.78125 -0.640625 -2.21875 -0.640625q-1.703125 0 -2.421875 0.5625q-0.71875 0.5625 -0.71875 1.3125q0 0.484375 0.296875 0.859375q0.296875 0.40625 0.9375 0.65625q0.375 0.140625 2.171875 0.625q2.625 0.703125 3.65625 1.15625q1.03125 0.4375 1.609375 1.28125q0.59375 0.84375 0.59375 2.109375q0 1.234375 -0.71875 2.328125q-0.71875 1.078125 -2.078125 1.671875q-1.34375 0.59375 -3.0625 0.59375q-2.828125 0 -4.3125 -1.171875q-1.484375 -1.1875 -1.890625 -3.484375zm20.359375 2.125l0.359375 2.171875q-1.046875 0.21875 -1.859375 0.21875q-1.34375 0 -2.078125 -0.421875q-0.734375 -0.421875 -1.046875 -1.109375q-0.296875 -0.6875 -0.296875 -2.90625l0 -8.359375l-1.796875 0l0 -1.90625l1.796875 0l0 -3.59375l2.453125 -1.484375l0 5.078125l2.46875 0l0 1.90625l-2.46875 0l0 8.5q0 1.046875 0.125 1.34375q0.125 0.296875 0.421875 0.484375q0.296875 0.171875 0.84375 0.171875q0.40625 0 1.078125 -0.09375zm22.433594 -0.15625l0 2.359375l-13.25 0q-0.015625 -0.890625 0.296875 -1.703125q0.5 -1.359375 1.609375 -2.671875q1.125 -1.3125 3.21875 -3.03125q3.28125 -2.6875 4.421875 -4.25q1.15625 -1.5625 1.15625 -2.953125q0 -1.46875 -1.046875 -2.46875q-1.046875 -1.015625 -2.734375 -1.015625q-1.78125 0 -2.84375 1.078125q-1.0625 1.0625 -1.078125 2.953125l-2.53125 -0.265625q0.265625 -2.828125 1.953125 -4.3125q1.703125 -1.484375 4.5625 -1.484375q2.875 0 4.546875 1.609375q1.6875 1.59375 1.6875 3.953125q0 1.203125 -0.5 2.375q-0.484375 1.15625 -1.625 2.4375q-1.140625 1.28125 -3.78125 3.53125q-2.21875 1.859375 -2.859375 2.53125q-0.625 0.65625 -1.03125 1.328125l9.828125 0zm2.6503906 -2.9375l2.46875 -0.328125q0.421875 2.09375 1.4375 3.015625q1.015625 0.921875 2.484375 0.921875q1.734375 0 2.921875 -1.203125q1.203125 -1.203125 1.203125 -2.96875q0 -1.703125 -1.109375 -2.796875q-1.109375 -1.109375 -2.8125 -1.109375q-0.703125 0 -1.734375 0.28125l0.265625 -2.171875q0.25 0.03125 0.40625 0.03125q1.5625 0 2.8125 -0.8125q1.265625 -0.828125 1.265625 -2.53125q0 -1.359375 -0.921875 -2.25q-0.90625 -0.890625 -2.359375 -0.890625q-1.421875 0 -2.390625 0.90625q-0.953125 0.90625 -1.21875 2.703125l-2.46875 -0.4375q0.453125 -2.46875 2.046875 -3.828125q1.609375 -1.359375 3.984375 -1.359375q1.640625 0 3.015625 0.703125q1.390625 0.703125 2.109375 1.921875q0.734375 1.21875 0.734375 2.578125q0 1.296875 -0.703125 2.375q-0.6875 1.0625 -2.046875 1.6875q1.765625 0.40625 2.75 1.703125q0.984375 1.296875 0.984375 3.234375q0 2.625 -1.921875 4.453125q-1.90625 1.828125 -4.828125 1.828125q-2.640625 0 -4.390625 -1.578125q-1.734375 -1.578125 -1.984375 -4.078125zm16.884766 5.296875l0 -2.796875l2.8125 0l0 2.796875q0 1.546875 -0.546875 2.5q-0.546875 0.953125 -1.734375 1.46875l-0.6875 -1.0625q0.78125 -0.328125 1.140625 -1.0q0.375 -0.65625 0.421875 -1.90625l-1.40625 0zm27.167938 -2.359375l0 2.359375l-13.25 0q-0.015625 -0.890625 0.296875 -1.703125q0.5 -1.359375 1.609375 -2.671875q1.125 -1.3125 3.21875 -3.03125q3.28125 -2.6875 4.421875 -4.25q1.15625 -1.5625 1.15625 -2.953125q0 -1.46875 -1.046875 -2.46875q-1.046875 -1.015625 -2.734375 -1.015625q-1.78125 0 -2.84375 1.078125q-1.0625 1.0625 -1.078125 2.953125l-2.53125 -0.265625q0.265625 -2.828125 1.953125 -4.3125q1.703125 -1.484375 4.5625 -1.484375q2.875 0 4.546875 1.609375q1.6875 1.59375 1.6875 3.953125q0 1.203125 -0.5 2.375q-0.484375 1.15625 -1.625 2.4375q-1.140625 1.28125 -3.78125 3.53125q-2.21875 1.859375 -2.859375 2.53125q-0.625 0.65625 -1.03125 1.328125l9.828125 0zm2.6347656 -7.53125q0 -3.546875 0.734375 -5.71875q0.734375 -2.171875 2.171875 -3.34375q1.453125 -1.171875 3.640625 -1.171875q1.609375 0 2.828125 0.65625q1.21875 0.640625 2.0 1.875q0.796875 1.21875 1.25 2.984375q0.453125 1.75 0.453125 4.71875q0 3.53125 -0.734375 5.703125q-0.71875 2.15625 -2.15625 3.34375q-1.4375 1.1875 -3.640625 1.1875q-2.90625 0 -4.5625 -2.078125q-1.984375 -2.5 -1.984375 -8.15625zm2.53125 0q0 4.9375 1.15625 6.578125q1.15625 1.625 2.859375 1.625q1.6875 0 2.84375 -1.640625q1.15625 -1.640625 1.15625 -6.5625q0 -4.9375 -1.15625 -6.5625q-1.15625 -1.640625 -2.875 -1.640625q-1.703125 0 -2.703125 1.4375q-1.28125 1.828125 -1.28125 6.765625zm22.322266 9.890625l-2.46875 0l0 -15.6875q-0.890625 0.859375 -2.328125 1.703125q-1.4375 0.84375 -2.59375 1.265625l0 -2.375q2.0625 -0.96875 3.609375 -2.34375q1.546875 -1.390625 2.1875 -2.6875l1.59375 0l0 20.125zm6.4628906 -17.421875l0 -2.359375l12.96875 0l0 1.90625q-1.90625 2.046875 -3.796875 5.421875q-1.875 3.375 -2.890625 6.9375q-0.75 2.515625 -0.953125 5.515625l-2.53125 0q0.046875 -2.359375 0.9375 -5.703125q0.890625 -3.359375 2.546875 -6.46875q1.65625 -3.109375 3.53125 -5.25l-9.8125 0z" fill-rule="nonzero"></path><path fill="#ffffff" d="m409.7969 403.2003l0 -2.46875l10.265625 -12.828125q1.09375 -1.375 2.078125 -2.375l-11.1875 0l0 -2.375l14.359375 0l0 2.375l-11.25 13.890625l-1.21875 1.421875l12.796875 0l0 2.359375l-15.84375 0zm19.08789 0l0 -2.796875l2.796875 0l0 2.796875l-2.796875 0zm18.667969 0l-5.3125 -20.046875l2.71875 0l3.046875 13.140625q0.5 2.0625 0.84375 4.109375q0.765625 -3.21875 0.90625 -3.71875l3.8125 -13.53125l3.203125 0l2.875 10.140625q1.078125 3.78125 1.5625 7.109375q0.375 -1.90625 0.984375 -4.375l3.15625 -12.875l2.65625 0l-5.484375 20.046875l-2.5625 0l-4.21875 -15.265625q-0.546875 -1.921875 -0.640625 -2.359375q-0.3125 1.375 -0.578125 2.359375l-4.25 15.265625l-2.71875 0zm23.31836 0l0 -2.796875l2.796875 0l0 2.796875l-2.796875 0zm15.089844 0l0 -20.046875l4.0 0l4.734375 14.1875q0.65625 1.984375 0.953125 2.96875q0.34375 -1.09375 1.078125 -3.203125l4.796875 -13.953125l3.5625 0l0 20.046875l-2.546875 0l0 -16.78125l-5.828125 16.78125l-2.390625 0l-5.796875 -17.0625l0 17.0625l-2.5625 0zm23.105469 -17.21875l0 -2.828125l2.46875 0l0 2.828125l-2.46875 0zm0 17.21875l0 -14.515625l2.46875 0l0 14.515625l-2.46875 0zm6.1581726 0l0 -20.046875l2.453125 0l0 20.046875l-2.453125 0zm6.220703 0l0 -20.046875l2.453125 0l0 20.046875l-2.453125 0zm16.205078 -4.671875l2.546875 0.3125q-0.59375 2.21875 -2.234375 3.453125q-1.625 1.234375 -4.15625 1.234375q-3.171875 0 -5.046875 -1.953125q-1.859375 -1.96875 -1.859375 -5.515625q0 -3.65625 1.875 -5.671875q1.890625 -2.03125 4.90625 -2.03125q2.90625 0 4.75 1.984375q1.84375 1.96875 1.84375 5.578125q0 0.21875 -0.015625 0.65625l-10.828125 0q0.140625 2.390625 1.359375 3.65625q1.21875 1.265625 3.03125 1.265625q1.359375 0 2.3125 -0.703125q0.953125 -0.71875 1.515625 -2.265625zm-8.078125 -3.984375l8.109375 0q-0.15625 -1.828125 -0.921875 -2.75q-1.1875 -1.421875 -3.0625 -1.421875q-1.6875 0 -2.84375 1.140625q-1.15625 1.125 -1.28125 3.03125zm13.681641 8.65625l0 -14.515625l2.21875 0l0 2.203125q0.84375 -1.546875 1.5625 -2.03125q0.71875 -0.5 1.578125 -0.5q1.25 0 2.53125 0.78125l-0.84375 2.296875q-0.90625 -0.546875 -1.796875 -0.546875q-0.8125 0 -1.453125 0.5q-0.640625 0.484375 -0.921875 1.34375q-0.40625 1.3125 -0.40625 2.859375l0 7.609375l-2.46875 0z" fill-rule="nonzero"></path></g></svg>

